<svg width="24" height="24" viewBox="0 0 24 24" fill="none" xmlns="http://www.w3.org/2000/svg">
<g clip-path="url(#clip0_1_18796)">
<path fill-rule="evenodd" clip-rule="evenodd" d="M14.9403 0.773581C14.9403 0.773581 15.7763 3.19928 15.7763 3.19814C16.4717 3.49621 17.1282 3.8757 17.7332 4.32891L20.2526 3.83998C20.5451 3.78307 20.8465 3.88686 21.0429 4.11126C22.0644 5.28335 22.8491 6.64188 23.3525 8.11309C23.4496 8.39553 23.3883 8.70809 23.1929 8.93354C23.1929 8.93354 21.5107 10.8703 21.5107 10.8692C21.6 11.6204 21.6 12.3795 21.5107 13.1296L23.1929 15.0663C23.3883 15.2918 23.4496 15.6044 23.3525 15.8868C22.8491 17.358 22.0644 18.7165 21.0429 19.8886C20.8465 20.113 20.5451 20.2168 20.2526 20.1599C20.2526 20.1599 17.7332 19.671 17.7343 19.671C17.1282 20.1242 16.4707 20.5037 15.7763 20.8006L14.9403 23.2263C14.8431 23.5087 14.6031 23.7174 14.3107 23.7755C12.7847 24.0747 11.2153 24.0747 9.68928 23.7755C9.39681 23.7174 9.15684 23.5087 9.0597 23.2263C9.0597 23.2263 8.22363 20.8006 8.22363 20.8017C7.52816 20.5037 6.87184 20.1242 6.26677 19.6709L3.74735 20.16C3.45488 20.2169 3.15349 20.1131 2.95702 19.8887C1.93561 18.7166 1.15088 17.3581 0.647419 15.8868C0.550281 15.6044 0.611698 15.2919 0.807025 15.0664C0.807025 15.0664 2.48928 13.1297 2.48928 13.1307C2.39998 12.3795 2.39998 11.6204 2.48928 10.8703L0.807069 8.93354C0.611742 8.70805 0.550325 8.39549 0.647419 8.11309C1.15088 6.64184 1.93561 5.28335 2.95698 4.11121C3.15344 3.88682 3.45484 3.78303 3.7473 3.83998C3.7473 3.83998 6.26672 4.32891 6.26563 4.32891C6.87179 3.8757 7.52926 3.49616 8.22358 3.19923L9.05966 0.773581C9.15679 0.491185 9.39677 0.282419 9.68924 0.224372C11.2152 -0.0747907 12.7847 -0.0747907 14.3106 0.224372C14.6031 0.282419 14.8431 0.491141 14.9403 0.773581ZM12 7.06493C9.27626 7.06493 7.06489 9.27626 7.06489 12C7.06489 14.7238 9.27621 16.9351 12 16.9351C14.7237 16.9351 16.935 14.7237 16.935 12C16.935 9.27626 14.7237 7.06493 12 7.06493ZM12 8.73935C13.7994 8.73935 15.2606 10.2006 15.2606 12C15.2606 13.7994 13.7994 15.2606 12 15.2606C10.2005 15.2606 8.73935 13.7994 8.73935 12C8.73935 10.2005 10.2005 8.73935 12 8.73935Z" fill="#02252C"/>
</g>
<defs>
<clipPath id="clip0_1_18796">
<rect width="24" height="24" fill="white"/>
</clipPath>
</defs>
</svg>
