<svg width="24" height="24" viewBox="0 0 24 24" fill="none" xmlns="http://www.w3.org/2000/svg">
<path d="M18.9844 9H13.0464L13.9803 1.11804C13.9834 1.099 13.9843 1.02008 13.9843 0.999939C13.9843 0.439087 13.5454 0 12.9844 0C12.6714 0 12.3713 0.149048 12.1685 0.422974L4.18433 12.4001C4.05542 12.572 3.98438 12.785 3.98438 12.9999C3.98438 13.561 4.42346 14.0001 4.98431 14.0001H9.92834L8.98737 22.897C8.98535 22.9149 8.98444 22.9819 8.98444 23.0001C8.98444 23.5609 9.42334 24 9.98438 24C10.2973 24 10.5974 23.851 10.7953 23.584L19.7844 10.6C19.9135 10.428 19.9843 10.2151 19.9843 9.99994C19.9843 9.43909 19.5454 9 18.9844 9Z" fill="#FFC107"/>
</svg>
