<svg width="24" height="24" viewBox="0 0 24 24" fill="none" xmlns="http://www.w3.org/2000/svg">
<path d="M5.00004 22C4.80779 22 4.61976 21.9819 4.43757 21.9474C4.08236 21.88 4.01827 21.4443 4.29278 21.209L9.59619 16.6632C9.79456 16.4932 10.0904 16.5046 10.2751 16.6893L11.7929 18.2071C12.1834 18.5976 12.8166 18.5976 13.2071 18.2071L16.6464 14.7678C16.8417 14.5725 17.1583 14.5725 17.3536 14.7678L21.8011 19.2153C21.9107 19.325 21.9659 19.48 21.9334 19.6316C21.6433 20.9852 20.4402 22 19 22H5.00004Z" fill="#02252C"/>
<path fill-rule="evenodd" clip-rule="evenodd" d="M2 5C2 3.34315 3.34315 2 5 2H19C20.6569 2 22 3.34315 22 5V15.3787C22 15.8241 21.4614 16.0472 21.1464 15.7322L17.7071 12.2929C17.3166 11.9024 16.6834 11.9024 16.2929 12.2929L12.5 16.0858L10.7071 14.2929C10.3376 13.9234 9.74595 13.9007 9.34921 14.2407L2.78737 19.8688C2.5377 20.0829 2.15135 19.9996 2.07719 19.6791C2.02669 19.4609 2 19.2336 2 19V5ZM8 10C9.10457 10 10 9.10457 10 8C10 6.89543 9.10457 6 8 6C6.89543 6 6 6.89543 6 8C6 9.10457 6.89543 10 8 10Z" fill="#02252C"/>
</svg>
