<svg width="24" height="24" viewBox="0 0 24 24" fill="none" xmlns="http://www.w3.org/2000/svg">
<path fill-rule="evenodd" clip-rule="evenodd" d="M3.18896 21.702C3.18896 22.116 3.52496 22.452 3.93896 22.452H19.936C20.35 22.452 20.686 22.116 20.686 21.702C20.686 20.709 20.024 19.736 18.776 18.991C17.233 18.07 14.746 17.452 11.938 17.452C9.12996 17.452 6.64296 18.07 5.09896 18.991C3.85196 19.736 3.18896 20.709 3.18896 21.702Z" fill="#02252C"/>
<path fill-rule="evenodd" clip-rule="evenodd" d="M12.6789 19.8131C12.6789 19.8131 13.1329 16.7811 14.5609 13.8231C15.4759 11.9261 16.7869 10.0431 18.6839 9.09406C19.0549 8.90906 19.2049 8.45806 19.0199 8.08806C18.8349 7.71806 18.3839 7.56806 18.0139 7.75306C15.8239 8.84806 14.2659 10.9821 13.2099 13.1711C11.6799 16.3421 11.1959 19.5911 11.1959 19.5911C11.1349 20.0011 11.4179 20.3831 11.8269 20.4441C12.2359 20.5051 12.6179 20.2221 12.6789 19.8131Z" fill="#02252C"/>
<path fill-rule="evenodd" clip-rule="evenodd" d="M13.169 11.1581L14 13.0001C15.745 10.7601 17.741 9.02306 19.914 7.64106C20.346 8.50506 19.996 9.55706 19.132 9.98906C17.673 10.7181 16.623 12.0811 15.836 13.5271C17.076 13.8621 18.094 13.8681 18.924 13.6561C20.934 13.1461 21.976 11.3711 22.428 9.36506C23.04 6.65106 22.585 3.56906 22.585 3.56906C22.525 3.16906 22.158 2.88806 21.755 2.93506C16.775 3.52206 14.529 5.20006 13.575 6.89506C12.711 8.42906 12.87 10.0461 13.169 11.1581Z" fill="#02252C"/>
<path fill-rule="evenodd" clip-rule="evenodd" d="M12.6809 19.8011C12.6809 19.8011 13.0249 17.2531 12.4309 14.2371C11.8239 11.1591 10.2409 7.61809 6.42294 5.70909C6.05194 5.52409 5.60194 5.67409 5.41594 6.04509C5.23094 6.41509 5.38194 6.86609 5.75194 7.05109C9.08694 8.71809 10.4289 11.8391 10.9589 14.5271C11.5009 17.2781 11.1939 19.6031 11.1939 19.6031C11.1389 20.0131 11.4279 20.3911 11.8379 20.4451C12.2489 20.5001 12.6259 20.2121 12.6809 19.8011Z" fill="#02252C"/>
<path fill-rule="evenodd" clip-rule="evenodd" d="M8.85195 11.445C8.11595 10.063 6.99995 8.79304 5.30495 7.94504C4.44095 7.51304 4.08995 6.46104 4.52195 5.59704C4.67095 5.30004 9.99995 10 10.9999 11L11.4859 9.01504C11.7029 7.87904 11.7879 6.02904 10.6089 4.44404C9.44895 2.88304 7.00895 1.50204 1.99395 1.55004C1.58795 1.55404 1.25995 1.87904 1.25095 2.28404C1.25095 2.28404 1.18895 5.39804 2.13895 8.01304C2.84095 9.94604 4.09895 11.575 6.15695 11.827C6.92195 11.921 7.81595 11.822 8.85195 11.445Z" fill="#02252C"/>
</svg>
