<svg width="24" height="24" viewBox="0 0 24 24" fill="none" xmlns="http://www.w3.org/2000/svg">
<path d="M20 6.25003H19.24C19.0071 6.25284 18.7783 6.18949 18.58 6.06734C18.3817 5.94519 18.2222 5.76927 18.12 5.56003L17.22 3.77003C16.9934 3.31175 16.6427 2.9263 16.2078 2.65757C15.7729 2.38884 15.2712 2.24764 14.76 2.25003H9.24C8.72877 2.24764 8.22713 2.38884 7.79222 2.65757C7.35731 2.9263 7.00659 3.31175 6.78 3.77003L5.88 5.56003C5.77778 5.76927 5.61826 5.94519 5.41999 6.06734C5.22173 6.18949 4.99286 6.25284 4.76 6.25003H4C3.27065 6.25003 2.57118 6.53976 2.05546 7.05549C1.53973 7.57121 1.25 8.27068 1.25 9.00003V19C1.25 19.7294 1.53973 20.4289 2.05546 20.9446C2.57118 21.4603 3.27065 21.75 4 21.75H20C20.7293 21.75 21.4288 21.4603 21.9445 20.9446C22.4603 20.4289 22.75 19.7294 22.75 19V9.00003C22.75 8.27068 22.4603 7.57121 21.9445 7.05549C21.4288 6.53976 20.7293 6.25003 20 6.25003ZM12 18.25C10.9616 18.25 9.94662 17.9421 9.08326 17.3652C8.2199 16.7884 7.54699 15.9684 7.14963 15.0091C6.75227 14.0498 6.6483 12.9942 6.85088 11.9758C7.05345 10.9574 7.55346 10.0219 8.28769 9.28772C9.02191 8.55349 9.95738 8.05348 10.9758 7.85091C11.9942 7.64833 13.0498 7.7523 14.0091 8.14966C14.9684 8.54702 15.7883 9.21993 16.3652 10.0833C16.9421 10.9466 17.25 11.9617 17.25 13C17.2474 14.3916 16.6934 15.7254 15.7094 16.7094C14.7254 17.6934 13.3916 18.2474 12 18.25Z" fill="#02252C"/>
<path d="M12 16.75C14.0711 16.75 15.75 15.0711 15.75 13C15.75 10.9289 14.0711 9.25 12 9.25C9.92893 9.25 8.25 10.9289 8.25 13C8.25 15.0711 9.92893 16.75 12 16.75Z" fill="#02252C"/>
</svg>
