<svg width="24" height="24" viewBox="0 0 24 24" fill="none" xmlns="http://www.w3.org/2000/svg">
<path d="M14.1211 12.0002L20.5605 5.56079C21.1465 4.97485 21.1465 4.02563 20.5605 3.4397C19.9746 2.85376 19.0254 2.85376 18.4395 3.4397L12 9.87915L5.56055 3.4397C4.97461 2.85376 4.02539 2.85376 3.43945 3.4397C2.85352 4.02563 2.85352 4.97485 3.43945 5.56079L9.87891 12.0002L3.43945 18.4397C2.85352 19.0256 2.85352 19.9749 3.43945 20.5608C3.73242 20.8538 4.11621 21.0002 4.5 21.0002C4.88379 21.0002 5.26758 20.8538 5.56055 20.5608L12 14.1213L18.4395 20.5608C18.7324 20.8538 19.1162 21.0002 19.5 21.0002C19.8838 21.0002 20.2676 20.8538 20.5605 20.5608C21.1465 19.9749 21.1465 19.0256 20.5605 18.4397L14.1211 12.0002Z" fill="#9FA4A3"/>
</svg>
